<svg aria-hidden="true" style="position: absolute; width: 0; height: 0; overflow: hidden;" version="1.1" xmlns="http://www.w3.org/2000/svg" xmlns:xlink="http://www.w3.org/1999/xlink">
<defs>
<symbol id="icon-button" viewBox="0 0 281 66" fill="none">
<rect x="7.588" y=".5" width="272.412" height="59" rx="6.5" stroke="#F7F7F7"/><rect x="1" y="6.5" width="273.51" height="59" rx="6.5" stroke="#F7F7F7"/><path d="m9.284 6.5 6.588-6M273.912 58l6.588-6M8.186 65l6.588-6M273.912 13l6.588-6M1.598 61l6.588-6M267.323 7l6.588-6" stroke="#F7F7F7" stroke-width=".5"/><path d="M79.695 26.625V38h-1.5V27.86h-5.61V38h-1.507V26.625h8.617Zm2.133 7.242v-.18c0-.609.089-1.174.266-1.695.177-.526.432-.982.765-1.367.334-.39.737-.693 1.211-.906a3.759 3.759 0 0 1 1.594-.328c.594 0 1.128.109 1.602.328.479.213.885.515 1.218.906.339.385.597.841.774 1.367.177.521.265 1.086.265 1.695v.18c0 .61-.088 1.175-.265 1.696-.177.52-.435.976-.774 1.367a3.543 3.543 0 0 1-1.21.906c-.47.214-1 .32-1.594.32a3.857 3.857 0 0 1-1.602-.32 3.623 3.623 0 0 1-1.219-.906 4.127 4.127 0 0 1-.765-1.367 5.234 5.234 0 0 1-.266-1.696Zm1.445-.18v.18c0 .422.05.82.149 1.196.099.37.247.697.445.984.203.286.456.513.758.68.302.161.654.242 1.055.242.395 0 .742-.081 1.039-.242.302-.167.552-.394.75-.68.198-.287.346-.615.445-.984a4.45 4.45 0 0 0 .156-1.196v-.18c0-.416-.052-.81-.156-1.18a3.038 3.038 0 0 0-.453-.991 2.154 2.154 0 0 0-.75-.688 2.104 2.104 0 0 0-1.047-.25c-.396 0-.745.084-1.047.25a2.249 2.249 0 0 0-.75.688 3.137 3.137 0 0 0-.445.992c-.1.37-.149.763-.149 1.18Zm13.485-7.82h1.187c0 .51-.078.917-.234 1.219-.156.297-.37.526-.64.687a3.207 3.207 0 0 1-.907.368c-.333.083-.68.164-1.039.242a4.758 4.758 0 0 0-1.25.445 2.92 2.92 0 0 0-.984.844c-.271.364-.472.838-.602 1.422-.125.583-.159 1.304-.102 2.164v.719H91v-.72c0-.963.091-1.804.273-2.523.188-.718.451-1.325.79-1.82a4.11 4.11 0 0 1 1.203-1.18 4.542 4.542 0 0 1 1.546-.601c.407-.078.756-.162 1.047-.25.292-.094.513-.219.664-.375.157-.156.235-.37.235-.64Zm-1.711 4.164c.552 0 1.044.097 1.476.29.433.192.8.46 1.102.804.302.344.531.75.688 1.219.161.463.242.968.242 1.515v.172c0 .589-.086 1.136-.258 1.64-.167.5-.414.938-.742 1.313-.323.37-.72.66-1.188.868-.463.208-.992.312-1.586.312-.594 0-1.125-.104-1.594-.312A3.468 3.468 0 0 1 92 36.984a3.89 3.89 0 0 1-.75-1.312 5.206 5.206 0 0 1-.25-1.64v-.173c0-.13.023-.257.07-.382.047-.125.105-.253.172-.383.073-.13.138-.269.195-.414.193-.47.456-.904.79-1.305a3.981 3.981 0 0 1 1.21-.969c.475-.25 1.01-.375 1.61-.375Zm-.281 1.18c-.532 0-.97.122-1.313.367-.338.245-.591.57-.758.977-.166.4-.25.836-.25 1.304v.172c0 .396.047.771.14 1.125.095.354.235.67.423.946.193.27.435.484.726.64.297.156.646.235 1.047.235.401 0 .748-.079 1.04-.235.291-.156.53-.37.718-.64.188-.276.328-.592.422-.946.094-.354.14-.729.14-1.125v-.172c0-.354-.046-.69-.14-1.007a2.484 2.484 0 0 0-.43-.844 1.947 1.947 0 0 0-.726-.578c-.292-.146-.638-.22-1.04-.22Zm10.414 5.344v-4.352c0-.333-.068-.622-.203-.867a1.337 1.337 0 0 0-.594-.578c-.266-.136-.594-.203-.985-.203-.364 0-.684.062-.96.187a1.67 1.67 0 0 0-.641.492 1.08 1.08 0 0 0-.227.657h-1.445c0-.302.078-.602.234-.899.157-.297.381-.565.672-.805a3.356 3.356 0 0 1 1.063-.578c.416-.146.88-.218 1.39-.218.615 0 1.157.104 1.625.312.474.209.844.524 1.11.945.271.417.406.94.406 1.57v3.938c0 .282.023.581.07.899.052.317.128.59.227.82V38h-1.508a2.71 2.71 0 0 1-.172-.664 5.444 5.444 0 0 1-.062-.781Zm.25-3.68.015 1.016h-1.461c-.411 0-.778.034-1.101.101a2.524 2.524 0 0 0-.813.29c-.218.13-.385.294-.5.491a1.31 1.31 0 0 0-.172.68c0 .266.06.508.18.727.12.218.3.393.539.523.245.125.544.188.899.188.442 0 .833-.094 1.172-.282.338-.187.606-.416.804-.687.203-.271.313-.534.328-.79l.618.696a2.119 2.119 0 0 1-.297.727 3.489 3.489 0 0 1-1.602 1.367 3.107 3.107 0 0 1-1.234.234c-.573 0-1.076-.112-1.508-.336a2.574 2.574 0 0 1-1-.898 2.373 2.373 0 0 1-.352-1.274c0-.453.089-.851.266-1.195.177-.349.432-.638.766-.867a3.633 3.633 0 0 1 1.203-.531 6.34 6.34 0 0 1 1.57-.18h1.68Zm9.843-3.328V38h-1.445v-8.453h1.445Zm-.492 3.883v1.187c-.291.11-.588.209-.89.297a8.157 8.157 0 0 1-.946.203c-.328.047-.685.07-1.07.07-.667 0-1.245-.114-1.734-.343a2.52 2.52 0 0 1-1.133-1.055c-.266-.474-.399-1.07-.399-1.789v-2.469h1.446V32c0 .469.07.849.211 1.14.14.292.346.508.617.65.271.135.601.202.992.202.375 0 .727-.023 1.055-.07.333-.052.651-.12.953-.203.307-.084.607-.18.898-.29Zm4.383 2.28 3.898-6.163h1.454V38h-1.454v-6.164L119.164 38h-1.437v-8.453h1.437v6.164Zm11.117-6.163V38h-1.453v-8.453h1.453Zm2.836 0v1.172h-7.07v-1.172h7.07Zm2.985 6.164L140 29.547h1.453V38H140v-6.164L136.102 38h-1.438v-8.453h1.438v6.164Zm21.359-1.79v.165a6.51 6.51 0 0 1-.195 1.64 3.929 3.929 0 0 1-.586 1.29 2.72 2.72 0 0 1-.953.851c-.381.198-.821.297-1.321.297-.411 0-.773-.055-1.086-.164a2.221 2.221 0 0 1-.797-.492 2.48 2.48 0 0 1-.515-.766 3.925 3.925 0 0 1-.258-1.015v-3.75a4.31 4.31 0 0 1 .258-1.079c.13-.317.302-.588.515-.812.219-.224.482-.396.789-.516.308-.12.667-.18 1.079-.18.406 0 .77.073 1.093.22.328.14.615.343.86.609.25.265.455.586.617.96.167.37.292.787.375 1.25.083.464.125.962.125 1.493Zm-1.445.165v-.164c0-.365-.026-.711-.078-1.04a4.285 4.285 0 0 0-.227-.913 2.58 2.58 0 0 0-.391-.735 1.68 1.68 0 0 0-.586-.484 1.672 1.672 0 0 0-.773-.172c-.313 0-.573.04-.781.117a1.223 1.223 0 0 0-.727.71v4.9c.063.114.154.224.274.328.119.099.281.182.484.25.203.062.458.094.766.094.364 0 .674-.073.929-.22.261-.15.472-.359.633-.624.167-.266.287-.573.359-.922.079-.349.118-.724.118-1.125Zm-8.594 0v-.164c0-.531.042-1.029.125-1.492.083-.464.208-.88.375-1.25.167-.375.372-.696.617-.961a2.6 2.6 0 0 1 .859-.61 2.688 2.688 0 0 1 1.102-.218c.401 0 .75.06 1.047.18.302.12.557.291.765.515.209.224.376.495.5.812.126.318.214.678.266 1.079v3.601a4.302 4.302 0 0 1-.258 1.07 2.633 2.633 0 0 1-.5.82 2.06 2.06 0 0 1-.773.516c-.302.12-.656.18-1.063.18-.5 0-.94-.099-1.32-.297-.38-.203-.7-.487-.961-.851a4.145 4.145 0 0 1-.586-1.29 6.51 6.51 0 0 1-.195-1.64Zm1.453-.164v.164c0 .401.034.776.102 1.125.072.349.184.656.335.922.157.265.36.474.61.625.25.146.557.219.922.219.312 0 .57-.04.773-.118a1.316 1.316 0 0 0 .758-.695v-4.758a1.156 1.156 0 0 0-.258-.398 1.183 1.183 0 0 0-.476-.313c-.203-.078-.464-.117-.782-.117-.364 0-.674.089-.929.266-.256.177-.461.419-.618.726a4.006 4.006 0 0 0-.335 1.07 7.666 7.666 0 0 0-.102 1.282Zm2.781 7.328V26h1.453v15.25h-1.453Zm7.313-7.383v-.18c0-.609.088-1.174.265-1.695.177-.526.433-.982.766-1.367.333-.39.737-.693 1.211-.906a3.758 3.758 0 0 1 1.594-.328c.593 0 1.127.109 1.601.328.479.213.886.515 1.219.906.339.385.596.841.773 1.367a5.21 5.21 0 0 1 .266 1.695v.18a5.21 5.21 0 0 1-.266 1.696c-.177.52-.434.976-.773 1.367a3.54 3.54 0 0 1-1.211.906c-.469.214-1 .32-1.594.32a3.856 3.856 0 0 1-1.601-.32A3.628 3.628 0 0 1 160 36.93a4.135 4.135 0 0 1-.766-1.367 5.237 5.237 0 0 1-.265-1.696Zm1.445-.18v.18c0 .422.05.82.148 1.196.099.37.248.697.446.984.203.286.456.513.758.68.302.161.653.242 1.054.242.396 0 .742-.081 1.039-.242.302-.167.552-.394.75-.68.198-.287.347-.615.446-.984.104-.376.156-.774.156-1.196v-.18c0-.416-.052-.81-.156-1.18a3.041 3.041 0 0 0-.453-.991 2.156 2.156 0 0 0-.75-.688 2.105 2.105 0 0 0-1.047-.25c-.396 0-.745.084-1.047.25a2.247 2.247 0 0 0-.75.688 3.138 3.138 0 0 0-.446.992c-.098.37-.148.763-.148 1.18Zm9.508-2.515V41.25h-1.453V29.547h1.328l.125 1.625Zm5.695 2.531v.164c0 .615-.073 1.185-.219 1.711-.145.521-.359.974-.64 1.36a2.91 2.91 0 0 1-1.024.898c-.406.214-.872.32-1.398.32-.537 0-1.01-.088-1.422-.265a2.814 2.814 0 0 1-1.047-.774 3.962 3.962 0 0 1-.687-1.219 7.008 7.008 0 0 1-.344-1.601v-.875c.062-.625.18-1.185.352-1.68.171-.495.398-.916.679-1.265a2.797 2.797 0 0 1 1.039-.805c.406-.188.875-.281 1.406-.281.532 0 1.003.104 1.415.312.411.203.757.495 1.039.875.281.38.492.836.632 1.367.146.526.219 1.112.219 1.758Zm-1.453.164v-.164c0-.422-.044-.818-.133-1.187a2.98 2.98 0 0 0-.414-.985 1.965 1.965 0 0 0-.703-.672c-.286-.166-.628-.25-1.023-.25a2.25 2.25 0 0 0-.953.188 2.052 2.052 0 0 0-.68.508 2.688 2.688 0 0 0-.461.718 4.086 4.086 0 0 0-.258.829v2.023c.104.365.25.708.438 1.031.187.318.437.576.75.774.312.192.705.289 1.179.289.391 0 .727-.081 1.008-.242.287-.167.521-.394.703-.68.188-.287.326-.615.414-.984.089-.376.133-.774.133-1.196Zm8.156 2.211 2.875-6.531h1.391L182.82 38h-1l-3.75-8.453h1.391l2.859 6.531Zm-3.281-6.531V38h-1.445v-8.453h1.445ZM185.555 38v-8.453h1.453V38h-1.453Zm6.156-.875 2.351-7.578h1.547l-3.39 9.758a5.392 5.392 0 0 1-.313.672 3.213 3.213 0 0 1-.484.695 2.311 2.311 0 0 1-.719.531c-.276.14-.607.211-.992.211-.115 0-.26-.016-.438-.047a4.293 4.293 0 0 1-.375-.078l-.007-1.172c.041.005.106.01.195.016a2.325 2.325 0 0 0 1.031-.117c.229-.084.422-.227.578-.43.162-.198.3-.471.414-.82l.602-1.641Zm-1.727-7.578 2.196 6.562.375 1.524-1.039.531-3.11-8.617h1.578Zm12.25 0v1.195h-4.086v-1.195h4.086Zm1.274 0V38h-1.446v-8.453h1.446Zm-5.711 0h1.453l-.219 4.078c-.036.63-.096 1.188-.179 1.672a5.73 5.73 0 0 1-.329 1.234 2.573 2.573 0 0 1-.515.844 1.887 1.887 0 0 1-.735.477 3.034 3.034 0 0 1-.992.148h-.453v-1.273l.313-.024c.224-.016.414-.068.57-.156.161-.089.297-.219.406-.39a2.36 2.36 0 0 0 .266-.68c.073-.276.127-.605.164-.985.042-.38.073-.823.094-1.328l.156-3.617Zm10.414 7.578 2.351-7.578h1.547l-3.39 9.758a5.392 5.392 0 0 1-.313.672 3.213 3.213 0 0 1-.484.695 2.311 2.311 0 0 1-.719.531c-.276.14-.607.211-.992.211-.115 0-.26-.016-.438-.047a4.293 4.293 0 0 1-.375-.078l-.007-1.172c.041.005.106.01.195.016a2.325 2.325 0 0 0 1.031-.117c.229-.084.422-.227.578-.43.162-.198.3-.471.414-.82l.602-1.641Zm-1.727-7.578 2.196 6.562.375 1.524-1.039.531-3.11-8.617h1.578Z" fill="#fff"/>
</symbol>
<symbol id="icon-logo" viewBox="0 0 30 32">
<path fill="#fff" style="fill: var(--color1, #fff)" d="M9.939 2.842c0.411-0.891 1.196-1.215 1.982-1.051 0.786 0.165 1.569 0.816 1.976 1.878l9.457 24.687c0.162 0.424 0.236 0.844 0.236 1.239-0.001 0.696-0.236 1.311-0.631 1.719s-0.949 0.607-1.591 0.473l-18.997-3.966c-0.642-0.134-1.195-0.565-1.588-1.137s-0.625-1.285-0.624-1.982c-0-0.006-0-0.012-0-0.019 0-0.406 0.088-0.791 0.247-1.137l-0.007 0.017 9.541-20.721zM11.921 1.713c-0.808-0.169-1.618 0.166-2.040 1.082l-9.54 20.721c-0.168 0.366-0.246 0.766-0.247 1.172-0.002 0.717 0.237 1.45 0.642 2.038s0.974 1.032 1.635 1.17l18.997 3.967c0.66 0.138 1.232-0.068 1.638-0.487s0.648-1.052 0.649-1.769c-0.002-0.459-0.091-0.897-0.25-1.298l0.008 0.024-9.458-24.688c-0.418-1.091-1.226-1.763-2.034-1.932z"></path>
<path fill="#fff" style="fill: var(--color1, #fff)" d="M9.796 2.755c0.441-0.957 1.295-1.312 2.144-1.134 0.844 0.176 1.675 0.874 2.102 1.99l9.457 24.688c0.155 0.388 0.246 0.837 0.248 1.307v0.001c-0.001 0.737-0.25 1.394-0.675 1.834-0.428 0.442-1.032 0.658-1.724 0.514l-18.998-3.967c-0.69-0.144-1.279-0.606-1.693-1.209s-0.659-1.355-0.658-2.092zM0.064 24.688h-0.064c0.001-0.418 0.081-0.832 0.255-1.211l9.541-20.721zM22.892 31.248c0.375-0.388 0.603-0.978 0.604-1.654-0.002-0.434-0.086-0.848-0.237-1.228l0.008 0.023-9.457-24.687c-0.397-1.037-1.158-1.662-1.908-1.819-0.744-0.155-1.485 0.148-1.877 0.998l-9.54 20.721c-0.146 0.317-0.231 0.689-0.231 1.080 0 0.007 0 0.014 0 0.021v-0.001c-0.001 0.676 0.224 1.37 0.607 1.928s0.917 0.97 1.53 1.098l18.997 3.967c0.61 0.127 1.132-0.062 1.505-0.446z"></path>
<path fill="#fff" style="fill: var(--color1, #fff)" d="M16.591 1.265c0.411-0.891 1.196-1.215 1.982-1.051 0.786 0.165 1.57 0.816 1.976 1.878l9.457 24.687c0.162 0.424 0.236 0.844 0.236 1.239-0.002 0.696-0.236 1.311-0.631 1.719s-0.949 0.607-1.591 0.473l-18.997-3.967c-0.642-0.134-1.195-0.565-1.588-1.137s-0.625-1.285-0.624-1.981c0.001-0.394 0.076-0.783 0.24-1.139l9.541-20.72zM18.573 0.136c-0.808-0.169-1.618 0.165-2.040 1.081l-9.54 20.722c-0.168 0.366-0.246 0.766-0.247 1.172-0.002 0.717 0.237 1.45 0.642 2.038s0.974 1.032 1.635 1.17l18.997 3.966c0.66 0.138 1.232-0.068 1.638-0.487s0.648-1.052 0.649-1.768c-0.002-0.459-0.091-0.897-0.251-1.298l0.008 0.024-9.457-24.688c-0.418-1.092-1.226-1.764-2.034-1.932z"></path>
<path fill="#fff" style="fill: var(--color1, #fff)" d="M16.448 1.178c0.441-0.956 1.295-1.311 2.144-1.134 0.844 0.176 1.675 0.874 2.102 1.99l9.457 24.688c0.155 0.388 0.247 0.837 0.248 1.308v0.001c-0.001 0.736-0.25 1.394-0.675 1.834-0.428 0.442-1.032 0.658-1.724 0.514l-18.997-3.966c-0.69-0.144-1.279-0.606-1.693-1.209-0.414-0.604-0.66-1.355-0.658-2.092zM6.716 23.111h-0.064c0.001-0.418 0.081-0.832 0.255-1.211l9.541-20.721zM29.544 29.67c0.375-0.388 0.603-0.978 0.604-1.653-0.002-0.434-0.086-0.848-0.237-1.228l0.008 0.023-9.457-24.687c-0.398-1.037-1.158-1.662-1.908-1.819-0.744-0.155-1.485 0.148-1.877 0.998l-9.54 20.72c-0.157 0.342-0.23 0.718-0.231 1.1-0.001 0.676 0.224 1.37 0.607 1.928s0.917 0.97 1.53 1.098l18.997 3.966c0.61 0.128 1.132-0.061 1.505-0.446z"></path>
<path fill="#fff" style="fill: var(--color1, #fff)" d="M11.304 1.764v-0.080l6.323-1.504v0.085l-6.323 1.499z"></path>
<path fill="#fff" style="fill: var(--color1, #fff)" d="M17.721 0.062l-0 0.278-6.511 1.544 0.001-0.274 6.51-1.548z"></path>
<path fill="#fff" style="fill: var(--color1, #fff)" d="M23.654 29.642v-0.069l6.588-1.59v0.069l-6.588 1.59z"></path>
<path fill="#fff" style="fill: var(--color1, #fff)" d="M30.336 27.863l-0.001 0.263-6.776 1.636 0.001-0.263 6.776-1.636z"></path>
<path fill="#fff" style="fill: var(--color1, #fff)" d="M22.108 31.873v-0.082l6.652-1.577v0.082l-6.652 1.577z"></path>
<path fill="#fff" style="fill: var(--color1, #fff)" d="M28.854 30.096l-0.001 0.275-6.84 1.622 0.001-0.275 6.84-1.622z"></path>
<path fill="#fff" style="fill: var(--color1, #fff)" d="M0.158 24.718v-0.069l6.588-1.591-0 0.069-6.588 1.59z"></path>
<path fill="#fff" style="fill: var(--color1, #fff)" d="M6.842 22.938l-0.002 0.263-6.775 1.636v-0.263l6.777-1.636z"></path>
<path fill="#fff" style="fill: var(--color1, #fff)" d="M1.72 27.65v-0.080l6.652-1.577v0.081l-6.652 1.577z"></path>
<path fill="#fff" style="fill: var(--color1, #fff)" d="M8.467 25.874l-0.001 0.274-6.84 1.622 0.001-0.274 6.84-1.622z"></path>
<path fill="#fff" style="fill: var(--color1, #fff)" d="M18.476 25.207l-5.423-14.095c-0.25-0.639-0.637-1.192-1.354-1.192-0.511 0-0.965 0.178-1.212 0.714l-5.426 11.766c-0.384 0.984-0.235 1.357 0.232 1.536 0.454 0.174 0.908 0.016 1.070-0.338l5.053-10.894c0.023-0.050 0.073-0.083 0.131-0.083 0.061 0 0.113 0.038 0.134 0.091l0 0.001 5.11 13.378c0.357 0.804 0.874 0.804 1.256 0.699 0.443-0.122 0.809-0.609 0.429-1.584z"></path>
</symbol>
<symbol id="icon-logo-text" viewBox="0 0 89 32">
<path fill="#fff" style="fill: var(--color1, #fff)" d="M16.066 19.056h-1.418v-0.417h3.249v0.417h-1.418v3.192h-0.412v-3.192zM21.369 18.639h0.468l-1.442 3.609c-0.259 0.636-0.484 1.058-0.674 1.268-0.191 0.224-0.412 0.337-0.666 0.337-0.196 0-0.399-0.062-0.61-0.185l0.135-0.321c0.163 0.080 0.303 0.121 0.42 0.121 0.18 0 0.341-0.079 0.483-0.237s0.291-0.421 0.444-0.79l0.079-0.193-1.76-3.609h0.492l1.22 2.551 0.254 0.561c0.006-0.022 0.071-0.214 0.198-0.577l0.959-2.535zM23.572 19.056h-1.419v-0.417h3.25v0.417h-1.418v3.192h-0.412v-3.192zM30.768 21.43l0.206 0.305c-0.149 0.19-0.343 0.338-0.566 0.43l-0.009 0.003c-0.24 0.102-0.498 0.152-0.772 0.152-0.555 0-1.009-0.17-1.364-0.513-0.348-0.342-0.523-0.796-0.523-1.363 0-0.529 0.169-0.974 0.508-1.332 0.308-0.336 0.748-0.546 1.237-0.546 0.011 0 0.021 0 0.032 0l-0.002-0c0.613 0 1.076 0.15 1.388 0.449l-0.199 0.337c-0.28-0.262-0.655-0.393-1.126-0.393-0.38 0-0.711 0.142-0.991 0.425-0.274 0.278-0.412 0.631-0.412 1.059 0 0.449 0.14 0.81 0.42 1.083 0.281 0.267 0.634 0.401 1.062 0.401 0.46 0 0.83-0.166 1.11-0.497zM34.668 19.241l-2.378 3.007h-0.412v-3.609h0.412v3.007l2.378-3.007h0.412v3.609h-0.412v-3.007zM39.471 22.248h-0.412v-1.636h-2.314v1.636h-0.412v-3.609h0.412v1.58h2.314v-1.58h0.412v3.609zM41.618 19.056h-1.418v-0.417h3.249v0.417h-1.418v3.192h-0.412v-3.192zM46.874 21.486l0.134 0.321c-0.322 0.342-0.761 0.513-1.316 0.513-0.57 0-1.028-0.171-1.371-0.513-0.349-0.342-0.523-0.796-0.523-1.363 0-0.546 0.159-0.995 0.476-1.348 0.322-0.353 0.766-0.529 1.332-0.529 0.46 0 0.845 0.15 1.157 0.449 0.306 0.294 0.46 0.687 0.46 1.178 0 0.129-0.008 0.241-0.024 0.337h-2.94c0.016 0.433 0.156 0.774 0.42 1.022s0.61 0.374 1.038 0.374c0.497 0 0.882-0.148 1.157-0.441zM45.566 18.959c-0.38 0-0.688 0.113-0.923 0.337s-0.372 0.521-0.409 0.89h2.568c-0.005-0.379-0.119-0.679-0.34-0.898-0.222-0.218-0.521-0.329-0.896-0.329zM49.306 22.32c-0.243 0-0.513-0.046-0.809-0.136-0.28-0.086-0.478-0.201-0.594-0.345l0.214-0.321c0.137 0.128 0.31 0.228 0.519 0.301s0.41 0.108 0.606 0.108c0.332 0 0.599-0.066 0.8-0.2s0.302-0.313 0.302-0.537c0-0.005 0-0.012 0-0.018 0-0.175-0.087-0.329-0.22-0.422l-0.002-0.001c-0.148-0.107-0.349-0.161-0.603-0.161h-0.602v-0.345h0.562c0.201 0 0.372-0.065 0.515-0.193 0.131-0.111 0.214-0.276 0.214-0.461 0-0.001 0-0.003 0-0.004v0c0-0.203-0.079-0.358-0.238-0.465s-0.38-0.16-0.666-0.16c-0.418 0-0.79 0.133-1.118 0.4l-0.166-0.32c0.301-0.316 0.747-0.474 1.339-0.474 0.406 0 0.722 0.084 0.947 0.253s0.337 0.4 0.337 0.694c0 0.422-0.214 0.711-0.642 0.866v0.016c0.243 0.022 0.433 0.111 0.57 0.269s0.206 0.351 0.206 0.581c0 0.332-0.135 0.594-0.404 0.786s-0.626 0.289-1.070 0.289zM54.442 18.639h0.468l-1.442 3.609c-0.259 0.636-0.484 1.058-0.674 1.268-0.191 0.224-0.412 0.337-0.666 0.337-0.196 0-0.399-0.062-0.61-0.185l0.135-0.321c0.163 0.080 0.303 0.121 0.42 0.121 0.18 0 0.341-0.079 0.484-0.237s0.29-0.421 0.444-0.79l0.079-0.193-1.76-3.609h0.492l1.22 2.551 0.254 0.561c0.005-0.022 0.071-0.214 0.198-0.577l0.959-2.535zM56.083 22.248h-0.436v-3.609h0.436v1.556h0.903c0.058-0.492 0.246-0.882 0.563-1.171 0.322-0.305 0.729-0.457 1.22-0.457 0.534 0 0.97 0.177 1.308 0.529 0.338 0.348 0.508 0.797 0.508 1.348s-0.169 1-0.508 1.348c-0.338 0.353-0.774 0.529-1.308 0.529-0.502 0-0.917-0.158-1.244-0.473-0.327-0.321-0.51-0.732-0.547-1.235h-0.895v1.636zM57.811 19.393c-0.249 0.268-0.373 0.618-0.373 1.051 0 0.428 0.124 0.781 0.373 1.058 0.254 0.268 0.578 0.401 0.975 0.401s0.719-0.134 0.967-0.401c0.249-0.278 0.373-0.631 0.373-1.058 0-0.433-0.124-0.783-0.373-1.051-0.248-0.273-0.57-0.409-0.967-0.409s-0.721 0.136-0.975 0.409zM62.345 19.056h-1.419v-0.417h3.25v0.417h-1.418v3.192h-0.412v-3.192zM65.951 22.248h-1.046v-3.609h0.412v1.211h0.689c0.941 0 1.411 0.396 1.411 1.187 0 0.374-0.12 0.67-0.361 0.886s-0.609 0.325-1.106 0.325zM65.935 20.243h-0.618v1.612h0.61c0.369 0 0.638-0.068 0.804-0.201s0.249-0.337 0.249-0.609c0.001-0.535-0.348-0.802-1.046-0.802zM71.079 21.43l0.206 0.305c-0.149 0.19-0.342 0.338-0.565 0.43l-0.009 0.003c-0.224 0.096-0.485 0.152-0.759 0.152-0.005 0-0.010-0-0.015-0h0.001c-0.555 0-1.009-0.17-1.363-0.513-0.349-0.342-0.524-0.796-0.524-1.363 0-0.529 0.169-0.974 0.508-1.332 0.308-0.336 0.748-0.546 1.237-0.546 0.011 0 0.022 0 0.033 0l-0.002-0c0.612 0 1.075 0.15 1.387 0.449l-0.198 0.337c-0.281-0.262-0.655-0.393-1.126-0.393-0.381 0-0.711 0.142-0.991 0.425-0.275 0.278-0.412 0.631-0.412 1.059 0 0.449 0.14 0.81 0.42 1.083 0.28 0.267 0.634 0.401 1.062 0.401 0.46 0 0.83-0.166 1.11-0.497zM73.481 18.639h1.062v3.609h-0.412v-1.348h-0.887l-1.023 1.348h-0.507l1.126-1.444c-0.245-0.039-0.456-0.163-0.606-0.339l-0.001-0.001c-0.155-0.176-0.249-0.408-0.249-0.663 0-0.008 0-0.016 0-0.024l-0 0.001c0-0.348 0.124-0.625 0.372-0.831s0.623-0.308 1.126-0.308zM72.418 19.786c0 0.214 0.082 0.388 0.246 0.521s0.338 0.2 0.524 0.2h0.943v-1.476h-0.721c-0.327 0-0.574 0.068-0.741 0.205s-0.25 0.32-0.25 0.55zM39.324 26.073c0-0.080 0.029-0.145 0.087-0.193 0.054-0.045 0.123-0.072 0.2-0.072 0.002 0 0.005 0 0.007 0h-0c0.069 0 0.13 0.025 0.186 0.076 0.051 0.045 0.083 0.111 0.083 0.184 0 0.001 0 0.003-0 0.004v-0c0 0.091-0.025 0.163-0.076 0.217-0.046 0.049-0.112 0.080-0.185 0.080-0.003 0-0.006-0-0.009-0h0c-0.003 0-0.007 0-0.010 0-0.078 0-0.148-0.031-0.2-0.080l0 0c-0.052-0.052-0.083-0.123-0.083-0.202 0-0.005 0-0.010 0-0.015l-0 0.001zM39.808 31.086h-0.412v-3.609h0.412v3.609zM41.108 32h-0.388v-1.307h0.444c0.137-0.177 0.26-0.463 0.369-0.858 0.108-0.396 0.178-0.842 0.209-1.34l0.055-1.018h2.275v3.217h0.594v1.307h-0.388v-0.914h-3.17v0.914zM42.186 27.87l-0.048 0.786c-0.042 0.492-0.116 0.92-0.222 1.283-0.1 0.353-0.206 0.604-0.317 0.754h2.061v-2.823h-1.474zM48.249 30.324l0.135 0.321c-0.322 0.342-0.761 0.513-1.316 0.513-0.57 0-1.028-0.171-1.371-0.513-0.348-0.342-0.523-0.796-0.523-1.363 0-0.545 0.159-0.994 0.476-1.348 0.322-0.353 0.766-0.529 1.332-0.529 0.46 0 0.846 0.15 1.157 0.449 0.306 0.294 0.46 0.687 0.46 1.179 0 0.128-0.008 0.24-0.023 0.337h-2.941c0.016 0.433 0.156 0.774 0.42 1.022 0.264 0.249 0.61 0.374 1.038 0.374 0.497 0 0.882-0.147 1.157-0.441zM46.941 27.797c-0.38 0-0.688 0.113-0.923 0.337s-0.371 0.521-0.409 0.89h2.568c-0.005-0.379-0.119-0.679-0.34-0.898-0.222-0.218-0.521-0.329-0.896-0.329zM49.303 26.137c0-0.069 0.024-0.127 0.071-0.172 0.044-0.042 0.103-0.068 0.168-0.068 0.002 0 0.004 0 0.006 0h-0c0.058 0 0.111 0.023 0.159 0.068 0.044 0.042 0.071 0.101 0.071 0.166 0 0.002-0 0.005-0 0.007v-0c0 0.003 0 0.007 0 0.011 0 0.066-0.026 0.126-0.068 0.17l0-0c-0.040 0.042-0.096 0.068-0.159 0.068-0.001 0-0.003 0-0.004-0h0c-0.002 0-0.005 0-0.008 0-0.132 0-0.238-0.107-0.238-0.238 0-0.004 0-0.007 0-0.011l-0 0.001zM50.246 31.086h-0.412v-3.609h0.412v3.609zM50.326 26.137c0-0.069 0.023-0.127 0.071-0.172 0.044-0.042 0.103-0.068 0.168-0.068 0.002 0 0.004 0 0.006 0h-0c0.063 0 0.117 0.023 0.162 0.068 0.045 0.046 0.068 0.103 0.068 0.172 0 0.075-0.023 0.135-0.068 0.181-0.040 0.042-0.096 0.068-0.159 0.068-0.001 0-0.003 0-0.004-0h0c-0.002 0-0.005 0-0.008 0-0.132 0-0.238-0.107-0.238-0.238 0-0.004 0-0.007 0-0.011l-0 0.001zM7.482 11.962h-1.913v-5.637h-1.978l-0.050 0.808c-0.144 1.369-0.352 2.412-0.623 3.13s-0.615 1.202-1.031 1.455c-0.416 0.252-0.99 0.384-1.721 0.396l-0.166-1.884c0.015 0.001 0.033 0.001 0.051 0.001 0.237 0 0.456-0.076 0.634-0.205l-0.003 0.002c0.244-0.18 0.46-0.556 0.649-1.127s0.31-1.289 0.366-2.154l0.117-2.355h5.669v7.572zM10.192 6.343l-0.482-1.414c0.745-0.454 1.646-0.723 2.61-0.723 0.012 0 0.024 0 0.036 0h-0.002c1.042 0 1.801 0.258 2.278 0.774 0.477 0.516 0.715 1.307 0.715 2.372v4.61h-1.663v-0.875c-0.443 0.65-1.18 0.975-2.211 0.975-0.71 0-1.278-0.21-1.705-0.631s-0.64-0.985-0.64-1.69c0-0.785 0.25-1.391 0.748-1.817s1.158-0.639 1.978-0.639c0.676 0 1.241 0.162 1.696 0.488 0.022-0.673-0.074-1.166-0.29-1.481s-0.585-0.471-1.106-0.471c-0.577 0-1.231 0.174-1.962 0.521zM12.104 10.431c0.642 0 1.125-0.23 1.446-0.69v-0.774c-0.31-0.246-0.748-0.37-1.313-0.37-0.355 0-0.643 0.084-0.865 0.252s-0.332 0.398-0.332 0.689c0 0.27 0.099 0.486 0.299 0.648 0.199 0.163 0.454 0.244 0.765 0.244zM22.927 0l0.998 1.582c-0.258 0.327-0.594 0.581-0.981 0.735l-0.016 0.006c-0.355 0.123-0.799 0.246-1.33 0.37-0.521 0.102-0.954 0.242-1.297 0.421-0.92 0.437-1.458 1.38-1.612 2.826h0.033c0.233-0.415 0.593-0.754 1.081-1.018 0.445-0.249 0.976-0.395 1.542-0.395 0.002 0 0.003 0 0.005 0h-0c1.031 0 1.856 0.336 2.477 1.009 0.621 0.684 0.931 1.588 0.931 2.709 0 1.088-0.366 2.013-1.097 2.775-0.732 0.752-1.674 1.127-2.826 1.127-1.253 0-2.245-0.431-2.977-1.295-0.72-0.863-1.081-2.030-1.081-3.499 0-3.231 0.942-5.26 2.826-6.090 0.392-0.173 0.85-0.314 1.326-0.398l0.037-0.005c0.566-0.112 0.981-0.222 1.247-0.328s0.504-0.284 0.714-0.53zM18.82 7.756c0.011 0.763 0.194 1.385 0.549 1.868s0.825 0.724 1.413 0.724c0.576 0 1.042-0.191 1.397-0.572s0.532-0.863 0.532-1.447c0-0.594-0.164-1.077-0.49-1.447s-0.779-0.555-1.355-0.555c-0.498 0-0.931 0.132-1.297 0.395s-0.615 0.609-0.748 1.034zM27.066 11.037c-0.742-0.751-1.114-1.705-1.114-2.86s0.372-2.103 1.114-2.843c0.743-0.751 1.729-1.127 2.96-1.127 1.218 0 2.2 0.375 2.943 1.127 0.753 0.74 1.13 1.688 1.13 2.843 0 1.145-0.377 2.097-1.13 2.86-0.754 0.74-1.735 1.11-2.943 1.11-1.23 0-2.217-0.37-2.959-1.11zM28.58 6.629c-0.388 0.404-0.582 0.92-0.582 1.548s0.191 1.147 0.574 1.557c0.382 0.409 0.867 0.614 1.455 0.614 0.598 0 1.089-0.202 1.471-0.606 0.383-0.404 0.574-0.926 0.574-1.565 0-0.628-0.194-1.144-0.582-1.548s-0.876-0.606-1.463-0.606c-0.577 0-1.058 0.202-1.446 0.606zM37.674 15.327h-1.911v-10.935h1.912v0.722c0.244-0.269 0.576-0.488 0.997-0.656 0.387-0.16 0.836-0.252 1.307-0.252 0.003 0 0.005 0 0.008 0h-0c1.031 0 1.851 0.359 2.461 1.077 0.621 0.729 0.931 1.654 0.931 2.775 0 1.178-0.366 2.154-1.097 2.928s-1.685 1.161-2.86 1.161c-0.754 0-1.335-0.123-1.746-0.37v3.55zM39.386 6.023c-0.665 0-1.236 0.274-1.712 0.825v3.062c0.454 0.292 0.981 0.438 1.579 0.438 0.632 0 1.139-0.207 1.521-0.623s0.574-0.953 0.574-1.615c0-0.628-0.174-1.133-0.523-1.514s-0.829-0.572-1.439-0.572zM45.621 6.343l-0.482-1.414c0.745-0.454 1.646-0.723 2.61-0.723 0.012 0 0.024 0 0.036 0h-0.002c1.041 0 1.801 0.258 2.277 0.774 0.477 0.516 0.716 1.307 0.716 2.372v4.61h-1.663v-0.875c-0.443 0.65-1.18 0.975-2.211 0.975-0.71 0-1.278-0.21-1.705-0.631s-0.64-0.985-0.64-1.69c0-0.785 0.25-1.391 0.748-1.817s1.158-0.639 1.978-0.639c0.676 0 1.241 0.162 1.696 0.488 0.022-0.673-0.075-1.166-0.291-1.481s-0.585-0.471-1.105-0.471c-0.577 0-1.231 0.174-1.962 0.521zM47.533 10.431c0.643 0 1.125-0.23 1.446-0.69v-0.774c-0.31-0.246-0.748-0.37-1.313-0.37-0.355 0-0.643 0.084-0.865 0.252s-0.332 0.398-0.332 0.689c0 0.27 0.1 0.486 0.299 0.648 0.199 0.163 0.454 0.244 0.764 0.244zM54.417 6.326h-2.461v-1.936h6.817v1.935h-2.444v5.636h-1.912v-5.636zM60.551 11.037c-0.743-0.751-1.114-1.705-1.114-2.86s0.371-2.103 1.114-2.843c0.743-0.751 1.729-1.127 2.959-1.127 1.219 0 2.2 0.375 2.943 1.127 0.754 0.74 1.13 1.688 1.13 2.843 0 1.145-0.377 2.097-1.13 2.86-0.754 0.74-1.735 1.11-2.943 1.11-1.23 0-2.217-0.37-2.959-1.11zM62.065 6.629c-0.388 0.404-0.582 0.92-0.582 1.548s0.191 1.147 0.574 1.557c0.382 0.409 0.866 0.614 1.454 0.614 0.599 0 1.089-0.202 1.471-0.606s0.574-0.926 0.574-1.565c0-0.628-0.194-1.144-0.582-1.548s-0.876-0.606-1.463-0.606c-0.577 0-1.058 0.202-1.446 0.606zM71.159 15.327h-1.912v-10.935h1.912v0.722c0.244-0.269 0.576-0.488 0.998-0.656 0.387-0.16 0.836-0.252 1.306-0.252 0.002 0 0.005 0 0.007 0h-0c1.031 0 1.851 0.359 2.461 1.077 0.621 0.729 0.931 1.654 0.931 2.775 0 1.178-0.366 2.154-1.097 2.928s-1.685 1.161-2.86 1.161c-0.754 0-1.336-0.123-1.746-0.37v3.55zM72.871 6.023c-0.665 0-1.236 0.274-1.712 0.825v3.062c0.454 0.292 0.981 0.438 1.579 0.438 0.632 0 1.139-0.207 1.521-0.623s0.574-0.953 0.574-1.615c0-0.628-0.174-1.133-0.524-1.514s-0.828-0.572-1.438-0.572zM78.607 1.665c0-0.337 0.113-0.608 0.341-0.816s0.513-0.311 0.856-0.311c0.299 0 0.557 0.106 0.773 0.319s0.324 0.482 0.324 0.807c0 0.359-0.108 0.651-0.324 0.875s-0.474 0.337-0.773 0.337c-0.343 0-0.629-0.112-0.856-0.337s-0.341-0.516-0.341-0.875zM80.719 11.962h-1.912v-7.571h1.912v7.571zM86.786 4.391h2.444v7.571h-1.912v-2.271h-1.064l-1.546 2.271h-2.194l1.995-2.692c-0.41-0.146-0.754-0.412-1.031-0.8-0.277-0.386-0.416-0.849-0.416-1.388 0-0.83 0.313-1.486 0.94-1.968s1.554-0.724 2.785-0.724zM85.108 7.217c0 0.292 0.122 0.538 0.366 0.74s0.526 0.303 0.848 0.303h0.998v-2.186h-0.848c-0.422 0-0.754 0.11-0.998 0.328-0.225 0.194-0.366 0.479-0.366 0.797 0 0.007 0 0.013 0 0.020v-0.001z"></path>
</symbol>
<symbol id="icon-progressive-text" viewBox="0 0 31 32">
<path fill="#f7f7f7" style="fill: var(--color2, #f7f7f7)" d="M10.802 4.555l1.061-3.159 0.848 2.516 0.382-0.129-1.060-3.145-0.337 0.113-1.061 3.16-0.848-2.516-0.382 0.129 1.060 3.145 0.337-0.113zM9.666 0.635c0.164 0.31 0.558 0.438 1.029 0.279 0.431-0.145 0.706-0.488 0.633-0.839l-0.36 0.121c0.022 0.213-0.131 0.369-0.364 0.448-0.256 0.087-0.449 0.032-0.579-0.13l-0.359 0.121z"></path>
<path fill="#f7f7f7" style="fill: var(--color2, #f7f7f7)" d="M7.768 6.436l-0.337 0.23-0.705-3.561 0.286-0.195 3.061 1.95-0.356 0.244-0.919-0.589-1.248 0.853 0.219 1.068zM8.454 4.29l-1.293-0.833 0.307 1.507 0.986-0.674z"></path>
<path fill="#f7f7f7" style="fill: var(--color2, #f7f7f7)" d="M3.541 6.687l0.779-0.862 2.181 1.97 0.27-0.299-2.181-1.97 0.778-0.862-0.281-0.254-1.827 2.023 0.281 0.254z"></path>
<path fill="#f7f7f7" style="fill: var(--color2, #f7f7f7)" d="M3.756 9.582l1.107 0.633-0.2 0.35-2.882-1.646c0.044-0.078 0.121-0.216 0.199-0.358l0-0c0.084-0.151 0.169-0.307 0.223-0.4 0.47-0.824 1.053-0.812 1.502-0.556 0.469 0.268 0.715 0.85 0.313 1.555-0.066 0.115-0.169 0.286-0.263 0.423zM3.49 7.973c-0.342-0.196-0.677-0.114-0.938 0.343-0.031 0.047-0.111 0.191-0.19 0.337l-0.051 0.104 1.111 0.635c0.092-0.133 0.178-0.264 0.26-0.408 0.242-0.424 0.17-0.804-0.193-1.010zM1.878 14.044c0.978 0.253 1.835-0.279 2.076-1.211s-0.273-1.819-1.228-2.066c-0.977-0.253-1.835 0.279-2.076 1.211-0.247 0.955 0.296 1.825 1.228 2.066zM1.985 13.631c-0.748-0.193-1.148-0.86-0.968-1.558 0.178-0.689 0.854-1.087 1.602-0.893 0.725 0.188 1.158 0.824 0.968 1.558-0.178 0.688-0.872 1.081-1.602 0.893z"></path>
<path fill="#f7f7f7" style="fill: var(--color2, #f7f7f7)" d="M3.559 16.11l-0.001 0.403-3.319-0.013 0.007-1.849 0.379 0.001-0.006 1.446 2.939 0.011zM27.841 16.48l0.039-0.401 3.303 0.319-0.178 1.84-0.378-0.036 0.139-1.439-2.926-0.283z"></path>
<path fill="#f7f7f7" style="fill: var(--color2, #f7f7f7)" d="M27.138 19.713c0.328-0.905 1.232-1.353 2.181-1.009 0.905 0.328 1.364 1.246 1.028 2.173-0.328 0.905-1.232 1.354-2.181 1.009-0.927-0.336-1.356-1.268-1.028-2.173zM29.991 20.747c0.245-0.678-0.090-1.379-0.817-1.642-0.709-0.257-1.437 0.069-1.679 0.738-0.258 0.713 0.113 1.387 0.817 1.642 0.727 0.264 1.437-0.069 1.679-0.738zM26.015 22.184l1.048 0.727c-0.094 0.114-0.192 0.244-0.286 0.377l-0.014 0.021c-0.463 0.666-0.269 1.268 0.175 1.576 0.425 0.295 1.004 0.357 1.545-0.422 0.061-0.088 0.16-0.235 0.257-0.378l0-0.001c0.091-0.135 0.179-0.266 0.23-0.339l-2.726-1.893-0.23 0.331zM28.151 24.279c-0.3 0.432-0.642 0.484-0.965 0.259-0.343-0.238-0.381-0.623-0.103-1.024 0.095-0.136 0.192-0.26 0.295-0.384l1.052 0.73c-0.136 0.212-0.228 0.348-0.321 0.483l0.042-0.065z"></path>
<path fill="#f7f7f7" style="fill: var(--color2, #f7f7f7)" d="M26.137 26.631l0.853-0.788 0.257 0.279-2.003 1.849-0.257-0.279 0.853-0.788-1.994-2.159 0.296-0.273 1.993 2.16z"></path>
<path fill="#f7f7f7" style="fill: var(--color2, #f7f7f7)" d="M23.085 25.525l-0.356 0.199 0.12 1.083-1.321 0.735-0.861-0.671-0.377 0.21 2.87 2.222 0.302-0.168-0.376-3.61zM23.060 28.746l-1.211-0.948 1.044-0.581 0.167 1.529z"></path>
<path fill="#f7f7f7" style="fill: var(--color2, #f7f7f7)" d="M18.226 30.345l1.344-3.050 0.346-0.083 0.77 3.228-0.392 0.094-0.616-2.582-1.343 3.050-0.346 0.083-0.77-3.228 0.392-0.094 0.616 2.582zM19.346 30.931c0.484-0.115 0.864 0.047 1 0.371l-0.369 0.088c-0.114-0.172-0.302-0.244-0.565-0.182-0.24 0.057-0.406 0.199-0.403 0.413l-0.369 0.088c-0.041-0.356 0.264-0.672 0.706-0.778z"></path>
<path fill="#f7f7f7" style="fill: var(--color2, #f7f7f7)" d="M15.387 27.911c-0.193-0.030-0.592-0.081-0.884-0.111-0.684-0.071-1.228 0.162-1.298 0.832-0.047 0.453 0.199 0.745 0.602 0.854l-0.001 0.009c-0.327 0.071-0.602 0.29-0.646 0.705-0.047 0.457 0.188 0.844 0.976 0.927 0.244 0.025 0.557 0.049 0.768 0.065h0.001l0.138 0.011 0.344-3.291zM14.297 29.313c-0.476-0.050-0.73-0.267-0.693-0.616 0.042-0.406 0.351-0.574 0.836-0.523 0.189 0.020 0.4 0.051 0.507 0.072l-0.117 1.122-0.533-0.056zM14.185 30.75c-0.439-0.046-0.65-0.254-0.614-0.598 0.037-0.359 0.345-0.522 0.694-0.485l0.528 0.055-0.111 1.065-0.049-0.003c-0.121-0.008-0.295-0.019-0.447-0.035z"></path>
<path fill="#f7f7f7" style="fill: var(--color2, #f7f7f7)" d="M10.336 26.693l0.378 0.14-0.523 1.409 1.711 0.635 0.523-1.409 0.378 0.14-1.154 3.111-0.378-0.14 0.5-1.347-1.711-0.635-0.5 1.347-0.378-0.14 1.154-3.111zM9.321 26.116l-3.201 0.927 1.585-2.13-0.323-0.241-1.982 2.662 0.285 0.212 3.201-0.927-1.585 2.129 0.323 0.241 1.982-2.662-0.285-0.212zM4.971 23.249c0.474-0.386 1.089-0.209 1.473 0.262 0.321 0.393 0.376 0.867 0.281 1.171l-0.35-0.002c0.060-0.324-0.039-0.702-0.21-0.911-0.272-0.335-0.649-0.444-0.968-0.183-0.254 0.207-0.27 0.525-0.009 0.845l0.242 0.298-0.294 0.239-0.225-0.276c-0.103-0.123-0.256-0.201-0.427-0.201-0.135 0-0.259 0.048-0.355 0.128l0.001-0.001c-0.279 0.228-0.254 0.544-0.039 0.808 0.207 0.254 0.453 0.346 0.763 0.351l-0.056 0.351c-0.365 0.010-0.755-0.161-1.028-0.496-0.362-0.445-0.361-0.947 0.076-1.303 0.217-0.177 0.558-0.253 0.89-0.108l0.011-0.009c-0.196-0.36-0.071-0.725 0.223-0.965zM4.332 20.004l-0.125-0.358-3.132 1.096 0.125 0.358 3.132-1.095z"></path>
<path fill="#f7f7f7" style="fill: var(--color2, #f7f7f7)" d="M15.802 3.591c-0.332-0.006-0.643-0.018-0.952-0.035l0.061 0.003 0.051-3.309 0.138-0.001c0.212-0.003 0.527-0.007 0.773-0.003 0.792 0.012 1.061 0.377 1.054 0.836-0.007 0.417-0.262 0.66-0.581 0.759v0.009c0.411 0.073 0.682 0.343 0.675 0.798-0.010 0.673-0.532 0.954-1.219 0.943zM16.618 2.617c0.006-0.351-0.267-0.545-0.745-0.552l-0.536-0.008-0.017 1.128c0.109 0.011 0.322 0.024 0.512 0.027 0.488 0.008 0.78-0.187 0.787-0.594zM16.522 1.165c0.005-0.346-0.224-0.535-0.665-0.541-0.026-0-0.058-0-0.089-0-0.127 0-0.253 0.002-0.378 0.006l0.018-0-0.049 0.001-0.017 1.071 0.531 0.008c0.351 0.006 0.643-0.184 0.649-0.545z"></path>
<path fill="#f7f7f7" style="fill: var(--color2, #f7f7f7)" d="M19.656 4.204l0.389 0.105 0.868-3.203-0.389-0.105-0.376 1.387-1.762-0.478 0.376-1.387-0.389-0.105-0.868 3.203 0.389 0.105 0.393-1.45 1.762 0.477-0.393 1.451zM24.205 3.566l-3.103 1.215-0.303-0.185 1.73-2.832 0.344 0.21-1.384 2.265 3.103-1.215 0.304 0.185-1.73 2.832-0.344-0.21 1.384-2.266zM24.199 7.099c0.424 0.434 1.053 0.555 1.49 0.127 0.271-0.265 0.362-0.64 0.135-0.981l0.010-0.010c0.344 0.114 0.677 0.007 0.877-0.188 0.403-0.395 0.359-0.895-0.043-1.305-0.302-0.308-0.706-0.444-1.068-0.401l-0.024 0.355c0.308-0.023 0.562 0.047 0.791 0.28 0.239 0.244 0.292 0.556 0.035 0.808-0.237 0.232-0.589 0.198-0.785-0.002l-0.249-0.254-0.271 0.265 0.269 0.275c0.288 0.295 0.302 0.613 0.068 0.842-0.295 0.288-0.68 0.214-0.981-0.095-0.189-0.193-0.322-0.56-0.292-0.888l-0.349 0.030c-0.067 0.311 0.032 0.778 0.386 1.141zM26.808 10.777l-0.157-0.345 3.022-1.372 0.157 0.345-3.022 1.372z"></path>
</symbol>
<symbol id="icon-progressive-circle" viewBox="0 0 32 32">
<path stroke="#f7f7f7" style="stroke: var(--color2, #f7f7f7)" stroke-linejoin="miter" stroke-linecap="butt" stroke-miterlimit="4" stroke-width="0.5714" d="M31.714 16c0 8.679-7.036 15.714-15.714 15.714s-15.714-7.036-15.714-15.714c0-8.679 7.036-15.714 15.714-15.714s15.714 7.036 15.714 15.714z"></path>
</symbol>
<symbol id="icon-progressive-arrow" viewBox="0 0 40 32">
<path fill="#f7f7f7" style="fill: var(--color2, #f7f7f7)" d="M20 32l17.32-30h-34.64l17.32 30z"></path>
</symbol>
</defs>
</svg>
