<svg aria-hidden="true" style="position:absolute;width:0;height:0;overflow:hidden" xmlns="http://www.w3.org/2000/svg"><defs><symbol id="icon-button" viewBox="0 0 281 66" fill="none"><rect x="7.588" y=".5" width="272.412" height="59" rx="6.5" stroke="#F7F7F7"/><rect x="1" y="6.5" width="273.51" height="59" rx="6.5" stroke="#F7F7F7"/><path d="m9.284 6.5 6.588-6M273.912 58l6.588-6M8.186 65l6.588-6m259.138-46 6.588-6M1.598 61l6.588-6M267.323 7l6.588-6" stroke="#F7F7F7" stroke-width=".5"/><path d="M79.695 26.625V38h-1.5V27.86h-5.61V38h-1.507V26.625h8.617Zm2.133 7.242v-.18c0-.609.089-1.174.266-1.695.177-.526.432-.982.765-1.367.334-.39.737-.693 1.211-.906a3.759 3.759 0 0 1 1.594-.328c.594 0 1.128.109 1.602.328.479.213.885.515 1.218.906.339.385.597.841.774 1.367.177.521.265 1.086.265 1.695v.18a5.24 5.24 0 0 1-.265 1.696 4.06 4.06 0 0 1-.774 1.367 3.543 3.543 0 0 1-1.21.906c-.47.214-1 .32-1.594.32a3.857 3.857 0 0 1-1.602-.32 3.623 3.623 0 0 1-1.219-.906 4.127 4.127 0 0 1-.765-1.367 5.234 5.234 0 0 1-.266-1.696Zm1.445-.18v.18c0 .422.05.82.149 1.196.099.37.247.697.445.984.203.286.456.513.758.68a2.21 2.21 0 0 0 1.055.242c.395 0 .742-.081 1.039-.242.302-.167.552-.394.75-.68.198-.287.346-.615.445-.984a4.45 4.45 0 0 0 .156-1.196v-.18c0-.416-.052-.81-.156-1.18a3.038 3.038 0 0 0-.453-.991 2.154 2.154 0 0 0-.75-.688 2.104 2.104 0 0 0-1.047-.25c-.396 0-.745.084-1.047.25a2.249 2.249 0 0 0-.75.688 3.137 3.137 0 0 0-.445.992c-.1.37-.149.763-.149 1.18Zm13.485-7.82h1.187c0 .51-.078.917-.234 1.219-.156.297-.37.526-.64.687a3.207 3.207 0 0 1-.907.368c-.333.083-.68.164-1.039.242a4.758 4.758 0 0 0-1.25.445 2.92 2.92 0 0 0-.984.844c-.271.364-.472.838-.602 1.422-.125.583-.159 1.304-.102 2.164v.719H91v-.72c0-.963.091-1.804.273-2.523.188-.718.451-1.325.79-1.82a4.11 4.11 0 0 1 1.203-1.18 4.542 4.542 0 0 1 1.546-.601c.407-.078.756-.162 1.047-.25.292-.094.513-.219.664-.375.157-.156.235-.37.235-.64Zm-1.711 4.164c.552 0 1.044.097 1.476.29.433.192.8.46 1.102.804.302.344.531.75.688 1.219.161.463.242.968.242 1.515v.172c0 .589-.086 1.136-.258 1.64-.167.5-.414.938-.742 1.313-.323.37-.72.66-1.188.868-.463.208-.992.312-1.586.312-.594 0-1.125-.104-1.594-.312A3.468 3.468 0 0 1 92 36.984a3.89 3.89 0 0 1-.75-1.312 5.206 5.206 0 0 1-.25-1.64v-.173c0-.13.023-.257.07-.382.047-.125.105-.253.172-.383.073-.13.138-.269.195-.414a4.99 4.99 0 0 1 .79-1.305 3.981 3.981 0 0 1 1.21-.969c.475-.25 1.01-.375 1.61-.375Zm-.281 1.18c-.532 0-.97.122-1.313.367-.338.245-.591.57-.758.977-.166.4-.25.836-.25 1.304v.172c0 .396.047.771.14 1.125.095.354.235.67.423.946.193.27.435.484.726.64.297.156.646.235 1.047.235.401 0 .748-.079 1.04-.235.291-.156.53-.37.718-.64.188-.276.328-.592.422-.946.094-.354.14-.729.14-1.125v-.172c0-.354-.046-.69-.14-1.007a2.484 2.484 0 0 0-.43-.844 1.947 1.947 0 0 0-.726-.578c-.292-.146-.638-.22-1.04-.22Zm10.414 5.344v-4.352a1.77 1.77 0 0 0-.203-.867 1.337 1.337 0 0 0-.594-.578c-.266-.136-.594-.203-.985-.203-.364 0-.684.062-.96.187a1.67 1.67 0 0 0-.641.492 1.08 1.08 0 0 0-.227.657h-1.445c0-.302.078-.602.234-.899.157-.297.381-.565.672-.805a3.356 3.356 0 0 1 1.063-.578 4.18 4.18 0 0 1 1.39-.218c.615 0 1.157.104 1.625.312.474.209.844.524 1.11.945.271.417.406.94.406 1.57v3.938c0 .282.023.581.07.899.052.317.128.59.227.82V38h-1.508a2.71 2.71 0 0 1-.172-.664 5.444 5.444 0 0 1-.062-.781Zm.25-3.68.015 1.016h-1.461c-.411 0-.778.034-1.101.101a2.524 2.524 0 0 0-.813.29c-.218.13-.385.294-.5.491a1.31 1.31 0 0 0-.172.68c0 .266.06.508.18.727.12.218.3.393.539.523.245.125.544.188.899.188.442 0 .833-.094 1.172-.282.338-.187.606-.416.804-.687.203-.271.313-.534.328-.79l.618.696a2.119 2.119 0 0 1-.297.727 3.489 3.489 0 0 1-1.602 1.367 3.107 3.107 0 0 1-1.234.234c-.573 0-1.076-.112-1.508-.336a2.574 2.574 0 0 1-1-.898 2.373 2.373 0 0 1-.352-1.274c0-.453.089-.851.266-1.195a2.3 2.3 0 0 1 .766-.867 3.633 3.633 0 0 1 1.203-.531 6.34 6.34 0 0 1 1.57-.18h1.68Zm9.843-3.328V38h-1.445v-8.453h1.445Zm-.492 3.883v1.187c-.291.11-.588.209-.89.297a8.157 8.157 0 0 1-.946.203 7.57 7.57 0 0 1-1.07.07c-.667 0-1.245-.114-1.734-.343a2.52 2.52 0 0 1-1.133-1.055c-.266-.474-.399-1.07-.399-1.789v-2.469h1.446V32c0 .469.07.849.211 1.14.14.292.346.508.617.65.271.135.601.202.992.202.375 0 .727-.023 1.055-.07.333-.052.651-.12.953-.203.307-.084.607-.18.898-.29Zm4.383 2.28 3.898-6.163h1.454V38h-1.454v-6.164L119.164 38h-1.437v-8.453h1.437v6.164Zm11.117-6.163V38h-1.453v-8.453h1.453Zm2.836 0v1.172h-7.07v-1.172h7.07Zm2.985 6.164L140 29.547h1.453V38H140v-6.164L136.102 38h-1.438v-8.453h1.438v6.164Zm21.359-1.79v.165a6.51 6.51 0 0 1-.195 1.64 3.929 3.929 0 0 1-.586 1.29 2.72 2.72 0 0 1-.953.851c-.381.198-.821.297-1.321.297-.411 0-.773-.055-1.086-.164a2.221 2.221 0 0 1-.797-.492 2.48 2.48 0 0 1-.515-.766 3.925 3.925 0 0 1-.258-1.015v-3.75a4.31 4.31 0 0 1 .258-1.079c.13-.317.302-.588.515-.812.219-.224.482-.396.789-.516a2.96 2.96 0 0 1 1.079-.18c.406 0 .77.073 1.093.22.328.14.615.343.86.609.25.265.455.586.617.96.167.37.292.787.375 1.25.083.464.125.962.125 1.493Zm-1.445.165v-.164c0-.365-.026-.711-.078-1.04a4.285 4.285 0 0 0-.227-.913 2.58 2.58 0 0 0-.391-.735 1.68 1.68 0 0 0-.586-.484 1.672 1.672 0 0 0-.773-.172c-.313 0-.573.04-.781.117a1.223 1.223 0 0 0-.727.71v4.9c.063.114.154.224.274.328.119.099.281.182.484.25.203.062.458.094.766.094.364 0 .674-.073.929-.22a1.76 1.76 0 0 0 .633-.624 2.77 2.77 0 0 0 .359-.922 5.09 5.09 0 0 0 .118-1.125Zm-8.594 0v-.164c0-.531.042-1.029.125-1.492.083-.464.208-.88.375-1.25.167-.375.372-.696.617-.961a2.6 2.6 0 0 1 .859-.61 2.688 2.688 0 0 1 1.102-.218c.401 0 .75.06 1.047.18.302.12.557.291.765.515.209.224.376.495.5.812.126.318.214.678.266 1.079v3.601a4.302 4.302 0 0 1-.258 1.07 2.633 2.633 0 0 1-.5.82 2.06 2.06 0 0 1-.773.516c-.302.12-.656.18-1.063.18-.5 0-.94-.099-1.32-.297-.38-.203-.7-.487-.961-.851a4.145 4.145 0 0 1-.586-1.29 6.51 6.51 0 0 1-.195-1.64Zm1.453-.164v.164c0 .401.034.776.102 1.125.072.349.184.656.335.922.157.265.36.474.61.625.25.146.557.219.922.219.312 0 .57-.04.773-.118a1.316 1.316 0 0 0 .758-.695v-4.758a1.156 1.156 0 0 0-.258-.398 1.183 1.183 0 0 0-.476-.313c-.203-.078-.464-.117-.782-.117-.364 0-.674.089-.929.266a1.926 1.926 0 0 0-.618.726 4.006 4.006 0 0 0-.335 1.07 7.666 7.666 0 0 0-.102 1.282Zm2.781 7.328V26h1.453v15.25h-1.453Zm7.313-7.383v-.18c0-.609.088-1.174.265-1.695.177-.526.433-.982.766-1.367.333-.39.737-.693 1.211-.906a3.758 3.758 0 0 1 1.594-.328c.593 0 1.127.109 1.601.328.479.213.886.515 1.219.906.339.385.596.841.773 1.367a5.21 5.21 0 0 1 .266 1.695v.18a5.21 5.21 0 0 1-.266 1.696c-.177.52-.434.976-.773 1.367a3.54 3.54 0 0 1-1.211.906c-.469.214-1 .32-1.594.32a3.856 3.856 0 0 1-1.601-.32A3.628 3.628 0 0 1 160 36.93a4.135 4.135 0 0 1-.766-1.367 5.237 5.237 0 0 1-.265-1.696Zm1.445-.18v.18c0 .422.05.82.148 1.196.099.37.248.697.446.984.203.286.456.513.758.68.302.161.653.242 1.054.242.396 0 .742-.081 1.039-.242.302-.167.552-.394.75-.68.198-.287.347-.615.446-.984.104-.376.156-.774.156-1.196v-.18c0-.416-.052-.81-.156-1.18a3.041 3.041 0 0 0-.453-.991 2.156 2.156 0 0 0-.75-.688 2.105 2.105 0 0 0-1.047-.25c-.396 0-.745.084-1.047.25a2.247 2.247 0 0 0-.75.688 3.138 3.138 0 0 0-.446.992 4.59 4.59 0 0 0-.148 1.18Zm9.508-2.515V41.25h-1.453V29.547h1.328l.125 1.625Zm5.695 2.531v.164c0 .615-.073 1.185-.219 1.711a4.2 4.2 0 0 1-.64 1.36 2.91 2.91 0 0 1-1.024.898c-.406.214-.872.32-1.398.32-.537 0-1.01-.088-1.422-.265a2.814 2.814 0 0 1-1.047-.774 3.962 3.962 0 0 1-.687-1.219 7.008 7.008 0 0 1-.344-1.601v-.875c.062-.625.18-1.185.352-1.68.171-.495.398-.916.679-1.265a2.797 2.797 0 0 1 1.039-.805c.406-.188.875-.281 1.406-.281.532 0 1.003.104 1.415.312.411.203.757.495 1.039.875.281.38.492.836.632 1.367.146.526.219 1.112.219 1.758Zm-1.453.164v-.164c0-.422-.044-.818-.133-1.187a2.98 2.98 0 0 0-.414-.985 1.965 1.965 0 0 0-.703-.672c-.286-.166-.628-.25-1.023-.25a2.25 2.25 0 0 0-.953.188 2.052 2.052 0 0 0-.68.508 2.688 2.688 0 0 0-.461.718 4.086 4.086 0 0 0-.258.829v2.023c.104.365.25.708.438 1.031.187.318.437.576.75.774.312.192.705.289 1.179.289.391 0 .727-.081 1.008-.242.287-.167.521-.394.703-.68.188-.287.326-.615.414-.984.089-.376.133-.774.133-1.196Zm8.156 2.211 2.875-6.531h1.391L182.82 38h-1l-3.75-8.453h1.391l2.859 6.531Zm-3.281-6.531V38h-1.445v-8.453h1.445ZM185.555 38v-8.453h1.453V38h-1.453Zm6.156-.875 2.351-7.578h1.547l-3.39 9.758a5.392 5.392 0 0 1-.313.672 3.213 3.213 0 0 1-.484.695 2.311 2.311 0 0 1-.719.531c-.276.14-.607.211-.992.211-.115 0-.26-.016-.438-.047a4.293 4.293 0 0 1-.375-.078l-.007-1.172c.041.005.106.01.195.016a2.325 2.325 0 0 0 1.031-.117 1.27 1.27 0 0 0 .578-.43c.162-.198.3-.471.414-.82l.602-1.641Zm-1.727-7.578 2.196 6.562.375 1.524-1.039.531-3.11-8.617h1.578Zm12.25 0v1.195h-4.086v-1.195h4.086Zm1.274 0V38h-1.446v-8.453h1.446Zm-5.711 0h1.453l-.219 4.078c-.036.63-.096 1.188-.179 1.672a5.73 5.73 0 0 1-.329 1.234 2.573 2.573 0 0 1-.515.844 1.887 1.887 0 0 1-.735.477 3.034 3.034 0 0 1-.992.148h-.453v-1.273l.313-.024c.224-.016.414-.068.57-.156.161-.089.297-.219.406-.39a2.36 2.36 0 0 0 .266-.68c.073-.276.127-.605.164-.985.042-.38.073-.823.094-1.328l.156-3.617Zm10.414 7.578 2.351-7.578h1.547l-3.39 9.758a5.392 5.392 0 0 1-.313.672 3.213 3.213 0 0 1-.484.695 2.311 2.311 0 0 1-.719.531c-.276.14-.607.211-.992.211-.115 0-.26-.016-.438-.047a4.293 4.293 0 0 1-.375-.078l-.007-1.172c.041.005.106.01.195.016a2.325 2.325 0 0 0 1.031-.117 1.27 1.27 0 0 0 .578-.43c.162-.198.3-.471.414-.82l.602-1.641Zm-1.727-7.578 2.196 6.562.375 1.524-1.039.531-3.11-8.617h1.578Z" fill="#fff"/></symbol><symbol id="icon-logo" viewBox="0 0 30 32"><path fill="#fff" style="fill:var(--color1, #fff)" d="M9.939 2.842c.411-.891 1.196-1.215 1.982-1.051.786.165 1.569.816 1.976 1.878l9.457 24.687c.162.424.236.844.236 1.239-.001.696-.236 1.311-.631 1.719s-.949.607-1.591.473L2.371 27.821c-.642-.134-1.195-.565-1.588-1.137s-.625-1.285-.624-1.982v-.019c0-.406.088-.791.247-1.137l-.007.017L9.94 2.842zm1.982-1.129c-.808-.169-1.618.166-2.04 1.082L.341 23.516a2.818 2.818 0 0 0-.247 1.172c-.002.717.237 1.45.642 2.038s.974 1.032 1.635 1.17l18.997 3.967c.66.138 1.232-.068 1.638-.487s.648-1.052.649-1.769a3.557 3.557 0 0 0-.25-1.298l.008.024-9.458-24.688c-.418-1.091-1.226-1.763-2.034-1.932z"/><path fill="#fff" style="fill:var(--color1, #fff)" d="M9.796 2.755c.441-.957 1.295-1.312 2.144-1.134.844.176 1.675.874 2.102 1.99l9.457 24.688c.155.388.246.837.248 1.307v.001c-.001.737-.25 1.394-.675 1.834-.428.442-1.032.658-1.724.514L2.35 27.988c-.69-.144-1.279-.606-1.693-1.209s-.659-1.355-.658-2.092zM.064 24.688H0c.001-.418.081-.832.255-1.211L9.796 2.756zm22.828 6.56c.375-.388.603-.978.604-1.654a3.36 3.36 0 0 0-.237-1.228l.008.023L13.81 3.702c-.397-1.037-1.158-1.662-1.908-1.819-.744-.155-1.485.148-1.877.998L.485 23.602a2.597 2.597 0 0 0-.231 1.08v.021-.001c-.001.676.224 1.37.607 1.928s.917.97 1.53 1.098l18.997 3.967c.61.127 1.132-.062 1.505-.446z"/><path fill="#fff" style="fill:var(--color1, #fff)" d="M16.591 1.265C17.002.374 17.787.05 18.573.214c.786.165 1.57.816 1.976 1.878l9.457 24.687c.162.424.236.844.236 1.239-.002.696-.236 1.311-.631 1.719s-.949.607-1.591.473L9.023 26.243c-.642-.134-1.195-.565-1.588-1.137s-.625-1.285-.624-1.981a2.73 2.73 0 0 1 .24-1.139l9.541-20.72zM18.573.136c-.808-.169-1.618.165-2.04 1.081l-9.54 20.722a2.818 2.818 0 0 0-.247 1.172c-.002.717.237 1.45.642 2.038s.974 1.032 1.635 1.17l18.997 3.966c.66.138 1.232-.068 1.638-.487s.648-1.052.649-1.768a3.537 3.537 0 0 0-.251-1.298l.008.024-9.457-24.688C20.189.976 19.381.304 18.573.136z"/><path fill="#fff" style="fill:var(--color1, #fff)" d="M16.448 1.178c.441-.956 1.295-1.311 2.144-1.134.844.176 1.675.874 2.102 1.99l9.457 24.688c.155.388.247.837.248 1.308v.001c-.001.736-.25 1.394-.675 1.834-.428.442-1.032.658-1.724.514L9.003 26.413c-.69-.144-1.279-.606-1.693-1.209a3.753 3.753 0 0 1-.658-2.092zM6.716 23.111h-.064c.001-.418.081-.832.255-1.211l9.541-20.721zm22.828 6.559c.375-.388.603-.978.604-1.653a3.36 3.36 0 0 0-.237-1.228l.008.023-9.457-24.687C20.064 1.088 19.304.463 18.554.306c-.744-.155-1.485.148-1.877.998l-9.54 20.72c-.157.342-.23.718-.231 1.1-.001.676.224 1.37.607 1.928s.917.97 1.53 1.098l18.997 3.966c.61.128 1.132-.061 1.505-.446z"/><path fill="#fff" style="fill:var(--color1, #fff)" d="M11.304 1.764v-.08L17.627.18v.085l-6.323 1.499z"/><path fill="#fff" style="fill:var(--color1, #fff)" d="M17.721.062V.34L11.21 1.884l.001-.274 6.51-1.548zM23.654 29.642v-.069l6.588-1.59v.069l-6.588 1.59z"/><path fill="#fff" style="fill:var(--color1, #fff)" d="m30.336 27.863-.001.263-6.776 1.636.001-.263 6.776-1.636zM22.108 31.873v-.082l6.652-1.577v.082l-6.652 1.577z"/><path fill="#fff" style="fill:var(--color1, #fff)" d="m28.854 30.096-.001.275-6.84 1.622.001-.275 6.84-1.622zM.158 24.718v-.069l6.588-1.591v.069l-6.588 1.59z"/><path fill="#fff" style="fill:var(--color1, #fff)" d="m6.842 22.938-.002.263-6.775 1.636v-.263l6.777-1.636zM1.72 27.65v-.08l6.652-1.577v.081L1.72 27.651z"/><path fill="#fff" style="fill:var(--color1, #fff)" d="m8.467 25.874-.001.274-6.84 1.622.001-.274 6.84-1.622zM18.476 25.207l-5.423-14.095c-.25-.639-.637-1.192-1.354-1.192-.511 0-.965.178-1.212.714L5.061 22.4c-.384.984-.235 1.357.232 1.536.454.174.908.016 1.07-.338l5.053-10.894a.144.144 0 0 1 .265.008v.001l5.11 13.378c.357.804.874.804 1.256.699.443-.122.809-.609.429-1.584z"/></symbol><symbol id="icon-logo-text" viewBox="0 0 89 32"><path fill="#fff" style="fill:var(--color1, #fff)" d="M16.066 19.056h-1.418v-.417h3.249v.417h-1.418v3.192h-.412v-3.192zm5.303-.417h.468l-1.442 3.609c-.259.636-.484 1.058-.674 1.268-.191.224-.412.337-.666.337-.196 0-.399-.062-.61-.185l.135-.321c.163.08.303.121.42.121.18 0 .341-.079.483-.237s.291-.421.444-.79l.079-.193-1.76-3.609h.492l1.22 2.551.254.561c.006-.022.071-.214.198-.577l.959-2.535zm2.203.417h-1.419v-.417h3.25v.417h-1.418v3.192h-.412v-3.192zm7.196 2.374.206.305c-.149.19-.343.338-.566.43l-.009.003c-.24.102-.498.152-.772.152-.555 0-1.009-.17-1.364-.513-.348-.342-.523-.796-.523-1.363 0-.529.169-.974.508-1.332a1.673 1.673 0 0 1 1.237-.546h.032-.002c.613 0 1.076.15 1.388.449l-.199.337c-.28-.262-.655-.393-1.126-.393-.38 0-.711.142-.991.425-.274.278-.412.631-.412 1.059 0 .449.14.81.42 1.083.281.267.634.401 1.062.401.46 0 .83-.166 1.11-.497zm3.9-2.189-2.378 3.007h-.412v-3.609h.412v3.007l2.378-3.007h.412v3.609h-.412v-3.007zm4.803 3.007h-.412v-1.636h-2.314v1.636h-.412v-3.609h.412v1.58h2.314v-1.58h.412v3.609zm2.147-3.192H40.2v-.417h3.249v.417h-1.418v3.192h-.412v-3.192zm5.256 2.43.134.321c-.322.342-.761.513-1.316.513-.57 0-1.028-.171-1.371-.513-.349-.342-.523-.796-.523-1.363 0-.546.159-.995.476-1.348.322-.353.766-.529 1.332-.529.46 0 .845.15 1.157.449.306.294.46.687.46 1.178 0 .129-.008.241-.024.337h-2.94c.016.433.156.774.42 1.022s.61.374 1.038.374c.497 0 .882-.148 1.157-.441zm-1.308-2.527c-.38 0-.688.113-.923.337s-.372.521-.409.89h2.568c-.005-.379-.119-.679-.34-.898-.222-.218-.521-.329-.896-.329zm3.74 3.361a2.81 2.81 0 0 1-.809-.136c-.28-.086-.478-.201-.594-.345l.214-.321c.137.128.31.228.519.301s.41.108.606.108c.332 0 .599-.066.8-.2s.302-.313.302-.537v-.018a.514.514 0 0 0-.22-.422l-.002-.001c-.148-.107-.349-.161-.603-.161h-.602v-.345h.562a.745.745 0 0 0 .515-.193.602.602 0 0 0 .214-.461v-.004c0-.203-.079-.358-.238-.465s-.38-.16-.666-.16c-.418 0-.79.133-1.118.4l-.166-.32c.301-.316.747-.474 1.339-.474.406 0 .722.084.947.253s.337.4.337.694c0 .422-.214.711-.642.866v.016c.243.022.433.111.57.269s.206.351.206.581c0 .332-.135.594-.404.786s-.626.289-1.07.289zm5.136-3.681h.468l-1.442 3.609c-.259.636-.484 1.058-.674 1.268-.191.224-.412.337-.666.337-.196 0-.399-.062-.61-.185l.135-.321c.163.08.303.121.42.121.18 0 .341-.079.484-.237s.29-.421.444-.79l.079-.193-1.76-3.609h.492l1.22 2.551.254.561c.005-.022.071-.214.198-.577l.959-2.535zm1.641 3.609h-.436v-3.609h.436v1.556h.903c.058-.492.246-.882.563-1.171.322-.305.729-.457 1.22-.457.534 0 .97.177 1.308.529.338.348.508.797.508 1.348s-.169 1-.508 1.348c-.338.353-.774.529-1.308.529-.502 0-.917-.158-1.244-.473-.327-.321-.51-.732-.547-1.235h-.895v1.636zm1.728-2.855c-.249.268-.373.618-.373 1.051 0 .428.124.781.373 1.058.254.268.578.401.975.401s.719-.134.967-.401c.249-.278.373-.631.373-1.058 0-.433-.124-.783-.373-1.051-.248-.273-.57-.409-.967-.409s-.721.136-.975.409zm4.534-.337h-1.419v-.417h3.25v.417h-1.418v3.192h-.412v-3.192zm3.606 3.192h-1.046v-3.609h.412v1.211h.689c.941 0 1.411.396 1.411 1.187 0 .374-.12.67-.361.886s-.609.325-1.106.325zm-.016-2.005h-.618v1.612h.61c.369 0 .638-.068.804-.201s.249-.337.249-.609c.001-.535-.348-.802-1.046-.802zm5.144 1.187.206.305c-.149.19-.342.338-.565.43l-.009.003a1.94 1.94 0 0 1-.759.152h-.015.001c-.555 0-1.009-.17-1.363-.513-.349-.342-.524-.796-.524-1.363 0-.529.169-.974.508-1.332a1.673 1.673 0 0 1 1.237-.546h.033-.002c.612 0 1.075.15 1.387.449l-.198.337c-.281-.262-.655-.393-1.126-.393-.381 0-.711.142-.991.425-.275.278-.412.631-.412 1.059 0 .449.14.81.42 1.083.28.267.634.401 1.062.401.46 0 .83-.166 1.11-.497zm2.402-2.791h1.062v3.609h-.412V20.9h-.887l-1.023 1.348h-.507l1.126-1.444a1 1 0 0 1-.606-.339l-.001-.001a1 1 0 0 1-.249-.663v-.024.001c0-.348.124-.625.372-.831s.623-.308 1.126-.308zm-1.063 1.147c0 .214.082.388.246.521s.338.2.524.2h.943v-1.476h-.721c-.327 0-.574.068-.741.205s-.25.32-.25.55zm-33.094 6.287c0-.08.029-.145.087-.193a.31.31 0 0 1 .2-.072h.007c.069 0 .13.025.186.076a.245.245 0 0 1 .083.184v.004a.302.302 0 0 1-.076.217.254.254 0 0 1-.185.08h-.019a.29.29 0 0 1-.2-.08.283.283 0 0 1-.083-.202v-.015.001zm.484 5.013h-.412v-3.609h.412v3.609zm1.3.914h-.388v-1.307h.444c.137-.177.26-.463.369-.858a6.68 6.68 0 0 0 .209-1.34l.055-1.018h2.275v3.217h.594v1.307h-.388v-.914h-3.17v.914zm1.078-4.13-.048.786a6.63 6.63 0 0 1-.222 1.283c-.1.353-.206.604-.317.754h2.061V27.87h-1.474zm6.063 2.454.135.321c-.322.342-.761.513-1.316.513-.57 0-1.028-.171-1.371-.513-.348-.342-.523-.796-.523-1.363 0-.545.159-.994.476-1.348.322-.353.766-.529 1.332-.529.46 0 .846.15 1.157.449.306.294.46.687.46 1.179 0 .128-.008.24-.023.337h-2.941c.016.433.156.774.42 1.022.264.249.61.374 1.038.374.497 0 .882-.147 1.157-.441zm-1.308-2.527c-.38 0-.688.113-.923.337s-.371.521-.409.89h2.568c-.005-.379-.119-.679-.34-.898-.222-.218-.521-.329-.896-.329zm2.362-1.66a.23.23 0 0 1 .071-.172.243.243 0 0 1 .168-.068h.006c.058 0 .111.023.159.068a.229.229 0 0 1 .071.166v.018a.246.246 0 0 1-.068.17.218.218 0 0 1-.159.068h-.012a.238.238 0 0 1-.238-.238v-.011.001zm.943 4.949h-.412v-3.609h.412v3.609zm.08-4.949c0-.069.023-.127.071-.172a.243.243 0 0 1 .168-.068h.006c.063 0 .117.023.162.068a.236.236 0 0 1 .068.172.248.248 0 0 1-.068.181.218.218 0 0 1-.159.068h-.012a.238.238 0 0 1-.238-.238v-.011.001zM7.482 11.962H5.569V6.325H3.591l-.05.808c-.144 1.369-.352 2.412-.623 3.13s-.615 1.202-1.031 1.455c-.416.252-.99.384-1.721.396L0 10.23a1.076 1.076 0 0 0 .685-.204l-.003.002c.244-.18.46-.556.649-1.127s.31-1.289.366-2.154l.117-2.355h5.669v7.572zm2.71-5.619L9.71 4.929a5.02 5.02 0 0 1 2.61-.723h.036-.002c1.042 0 1.801.258 2.278.774.477.516.715 1.307.715 2.372v4.61h-1.663v-.875c-.443.65-1.18.975-2.211.975-.71 0-1.278-.21-1.705-.631s-.64-.985-.64-1.69c0-.785.25-1.391.748-1.817s1.158-.639 1.978-.639c.676 0 1.241.162 1.696.488.022-.673-.074-1.166-.29-1.481s-.585-.471-1.106-.471c-.577 0-1.231.174-1.962.521zm1.912 4.088c.642 0 1.125-.23 1.446-.69v-.774c-.31-.246-.748-.37-1.313-.37-.355 0-.643.084-.865.252s-.332.398-.332.689c0 .27.099.486.299.648.199.163.454.244.765.244zM22.927 0l.998 1.582a2.361 2.361 0 0 1-.981.735l-.016.006a13.64 13.64 0 0 1-1.33.37c-.521.102-.954.242-1.297.421-.92.437-1.458 1.38-1.612 2.826h.033c.233-.415.593-.754 1.081-1.018a3.163 3.163 0 0 1 1.542-.395h.005c1.031 0 1.856.336 2.477 1.009.621.684.931 1.588.931 2.709 0 1.088-.366 2.013-1.097 2.775-.732.752-1.674 1.127-2.826 1.127-1.253 0-2.245-.431-2.977-1.295-.72-.863-1.081-2.03-1.081-3.499 0-3.231.942-5.26 2.826-6.09.392-.173.85-.314 1.326-.398l.037-.005c.566-.112.981-.222 1.247-.328s.504-.284.714-.53zM18.82 7.756c.011.763.194 1.385.549 1.868s.825.724 1.413.724c.576 0 1.042-.191 1.397-.572s.532-.863.532-1.447c0-.594-.164-1.077-.49-1.447s-.779-.555-1.355-.555c-.498 0-.931.132-1.297.395s-.615.609-.748 1.034zm8.246 3.281c-.742-.751-1.114-1.705-1.114-2.86s.372-2.103 1.114-2.843c.743-.751 1.729-1.127 2.96-1.127 1.218 0 2.2.375 2.943 1.127.753.74 1.13 1.688 1.13 2.843 0 1.145-.377 2.097-1.13 2.86-.754.74-1.735 1.11-2.943 1.11-1.23 0-2.217-.37-2.959-1.11zm1.514-4.408c-.388.404-.582.92-.582 1.548s.191 1.147.574 1.557c.382.409.867.614 1.455.614.598 0 1.089-.202 1.471-.606.383-.404.574-.926.574-1.565 0-.628-.194-1.144-.582-1.548s-.876-.606-1.463-.606c-.577 0-1.058.202-1.446.606zm9.094 8.698h-1.911V4.392h1.912v.722c.244-.269.576-.488.997-.656.387-.16.836-.252 1.307-.252h.008c1.031 0 1.851.359 2.461 1.077.621.729.931 1.654.931 2.775 0 1.178-.366 2.154-1.097 2.928s-1.685 1.161-2.86 1.161c-.754 0-1.335-.123-1.746-.37v3.55zm1.712-9.304c-.665 0-1.236.274-1.712.825V9.91c.454.292.981.438 1.579.438.632 0 1.139-.207 1.521-.623s.574-.953.574-1.615c0-.628-.174-1.133-.523-1.514s-.829-.572-1.439-.572zm6.235.32-.482-1.414a5.02 5.02 0 0 1 2.61-.723h.036-.002c1.041 0 1.801.258 2.277.774.477.516.716 1.307.716 2.372v4.61h-1.663v-.875c-.443.65-1.18.975-2.211.975-.71 0-1.278-.21-1.705-.631s-.64-.985-.64-1.69c0-.785.25-1.391.748-1.817s1.158-.639 1.978-.639c.676 0 1.241.162 1.696.488.022-.673-.075-1.166-.291-1.481s-.585-.471-1.105-.471c-.577 0-1.231.174-1.962.521zm1.912 4.088c.643 0 1.125-.23 1.446-.69v-.774c-.31-.246-.748-.37-1.313-.37-.355 0-.643.084-.865.252s-.332.398-.332.689c0 .27.1.486.299.648.199.163.454.244.764.244zm6.884-4.105h-2.461V4.39h6.817v1.935h-2.444v5.636h-1.912V6.325zm6.134 4.711c-.743-.751-1.114-1.705-1.114-2.86s.371-2.103 1.114-2.843c.743-.751 1.729-1.127 2.959-1.127 1.219 0 2.2.375 2.943 1.127.754.74 1.13 1.688 1.13 2.843 0 1.145-.377 2.097-1.13 2.86-.754.74-1.735 1.11-2.943 1.11-1.23 0-2.217-.37-2.959-1.11zm1.514-4.408c-.388.404-.582.92-.582 1.548s.191 1.147.574 1.557c.382.409.866.614 1.454.614.599 0 1.089-.202 1.471-.606s.574-.926.574-1.565c0-.628-.194-1.144-.582-1.548s-.876-.606-1.463-.606c-.577 0-1.058.202-1.446.606zm9.094 8.698h-1.912V4.392h1.912v.722c.244-.269.576-.488.998-.656.387-.16.836-.252 1.306-.252h.007c1.031 0 1.851.359 2.461 1.077.621.729.931 1.654.931 2.775 0 1.178-.366 2.154-1.097 2.928s-1.685 1.161-2.86 1.161c-.754 0-1.336-.123-1.746-.37v3.55zm1.712-9.304c-.665 0-1.236.274-1.712.825V9.91c.454.292.981.438 1.579.438.632 0 1.139-.207 1.521-.623s.574-.953.574-1.615c0-.628-.174-1.133-.524-1.514s-.828-.572-1.438-.572zm5.736-4.358c0-.337.113-.608.341-.816s.513-.311.856-.311c.299 0 .557.106.773.319s.324.482.324.807c0 .359-.108.651-.324.875s-.474.337-.773.337c-.343 0-.629-.112-.856-.337s-.341-.516-.341-.875zm2.112 10.297h-1.912V4.391h1.912v7.571zm6.067-7.571h2.444v7.571h-1.912V9.691h-1.064l-1.546 2.271h-2.194l1.995-2.692a2.131 2.131 0 0 1-1.031-.8c-.277-.386-.416-.849-.416-1.388 0-.83.313-1.486.94-1.968s1.554-.724 2.785-.724zm-1.678 2.826c0 .292.122.538.366.74s.526.303.848.303h.998V6.074h-.848c-.422 0-.754.11-.998.328a1.048 1.048 0 0 0-.366.797v.02-.001z"/></symbol><symbol id="icon-progressive-text" viewBox="0 0 31 32"><path fill="#f7f7f7" style="fill:var(--color2, #f7f7f7)" d="m10.802 4.555 1.061-3.159.848 2.516.382-.129-1.06-3.145-.337.113-1.061 3.16-.848-2.516-.382.129 1.06 3.145.337-.113zM9.666.635c.164.31.558.438 1.029.279.431-.145.706-.488.633-.839l-.36.121c.022.213-.131.369-.364.448-.256.087-.449.032-.579-.13l-.359.121zM7.768 6.436l-.337.23-.705-3.561.286-.195 3.061 1.95-.356.244-.919-.589-1.248.853.219 1.068zm.686-2.146-1.293-.833.307 1.507.986-.674zM3.541 6.687l.779-.862 2.181 1.97.27-.299-2.181-1.97.778-.862-.281-.254L3.26 6.433l.281.254zM3.756 9.582l1.107.633-.2.35-2.882-1.646.199-.358c.084-.151.169-.307.223-.4.47-.824 1.053-.812 1.502-.556.469.268.715.85.313 1.555a6.785 6.785 0 0 1-.263.423zM3.49 7.973c-.342-.196-.677-.114-.938.343a6.997 6.997 0 0 0-.19.337l-.051.104 1.111.635c.092-.133.178-.264.26-.408.242-.424.17-.804-.193-1.01zm-1.612 6.071c.978.253 1.835-.279 2.076-1.211s-.273-1.819-1.228-2.066c-.977-.253-1.835.279-2.076 1.211-.247.955.296 1.825 1.228 2.066zm.107-.413c-.748-.193-1.148-.86-.968-1.558.178-.689.854-1.087 1.602-.893.725.188 1.158.824.968 1.558-.178.688-.872 1.081-1.602.893zM3.559 16.11l-.001.403L.239 16.5l.007-1.849.379.001-.006 1.446 2.939.011zm24.282.37.039-.401 3.303.319-.178 1.84-.378-.036.139-1.439-2.926-.283zM27.138 19.713c.328-.905 1.232-1.353 2.181-1.009.905.328 1.364 1.246 1.028 2.173-.328.905-1.232 1.354-2.181 1.009-.927-.336-1.356-1.268-1.028-2.173zm2.853 1.034c.245-.678-.09-1.379-.817-1.642-.709-.257-1.437.069-1.679.738-.258.713.113 1.387.817 1.642.727.264 1.437-.069 1.679-.738zm-3.976 1.437 1.048.727a6.498 6.498 0 0 0-.286.377l-.014.021c-.463.666-.269 1.268.175 1.576.425.295 1.004.357 1.545-.422l.257-.378v-.001c.091-.135.179-.266.23-.339l-2.726-1.893-.23.331zm2.136 2.095c-.3.432-.642.484-.965.259-.343-.238-.381-.623-.103-1.024.095-.136.192-.26.295-.384l1.052.73c-.136.212-.228.348-.321.483l.042-.065zM26.137 26.631l.853-.788.257.279-2.003 1.849-.257-.279.853-.788-1.994-2.159.296-.273 1.993 2.16zM23.085 25.525l-.356.199.12 1.083-1.321.735-.861-.671-.377.21 2.87 2.222.302-.168-.376-3.61zm-.025 3.221-1.211-.948 1.044-.581.167 1.529zM18.226 30.345l1.344-3.05.346-.083.77 3.228-.392.094-.616-2.582-1.343 3.05-.346.083-.77-3.228.392-.094.616 2.582zm1.12.586c.484-.115.864.047 1 .371l-.369.088c-.114-.172-.302-.244-.565-.182-.24.057-.406.199-.403.413l-.369.088c-.041-.356.264-.672.706-.778zM15.387 27.911c-.193-.03-.592-.081-.884-.111-.684-.071-1.228.162-1.298.832-.047.453.199.745.602.854l-.001.009c-.327.071-.602.29-.646.705-.047.457.188.844.976.927.244.025.557.049.768.065h.001l.138.011.344-3.291zm-1.09 1.402c-.476-.05-.73-.267-.693-.616.042-.406.351-.574.836-.523.189.02.4.051.507.072l-.117 1.122-.533-.056zm-.112 1.437c-.439-.046-.65-.254-.614-.598.037-.359.345-.522.694-.485l.528.055-.111 1.065-.049-.003c-.121-.008-.295-.019-.447-.035zM10.336 26.693l.378.14-.523 1.409 1.711.635.523-1.409.378.14-1.154 3.111-.378-.14.5-1.347-1.711-.635-.5 1.347-.378-.14 1.154-3.111zm-1.015-.577-3.201.927 1.585-2.13-.323-.241L5.4 27.334l.285.212 3.201-.927-1.585 2.129.323.241 1.982-2.662-.285-.212zm-4.35-2.867c.474-.386 1.089-.209 1.473.262.321.393.376.867.281 1.171l-.35-.002c.06-.324-.039-.702-.21-.911-.272-.335-.649-.444-.968-.183-.254.207-.27.525-.009.845l.242.298-.294.239-.225-.276a.556.556 0 0 0-.782-.073l.001-.001c-.279.228-.254.544-.039.808.207.254.453.346.763.351l-.056.351a1.302 1.302 0 0 1-1.028-.496c-.362-.445-.361-.947.076-1.303a.863.863 0 0 1 .89-.108l.011-.009c-.196-.36-.071-.725.223-.965zm-.639-3.245-.125-.358-3.132 1.096.125.358 3.132-1.095zM15.802 3.591a25.55 25.55 0 0 1-.952-.035l.061.003.051-3.309.138-.001c.212-.003.527-.007.773-.003.792.012 1.061.377 1.054.836-.007.417-.262.66-.581.759v.009c.411.073.682.343.675.798-.01.673-.532.954-1.219.943zm.816-.974c.006-.351-.267-.545-.745-.552l-.536-.008-.017 1.128c.109.011.322.024.512.027.488.008.78-.187.787-.594zm-.096-1.452c.005-.346-.224-.535-.665-.541h-.089c-.127 0-.253.002-.378.006h.018l-.049.001-.017 1.071.531.008c.351.006.643-.184.649-.545zM19.656 4.204l.389.105.868-3.203-.389-.105-.376 1.387-1.762-.478.376-1.387-.389-.105-.868 3.203.389.105.393-1.45 1.762.477-.393 1.451zm4.549-.638-3.103 1.215-.303-.185 1.73-2.832.344.21-1.384 2.265 3.103-1.215.304.185-1.73 2.832-.344-.21 1.384-2.266zm-.006 3.533c.424.434 1.053.555 1.49.127.271-.265.362-.64.135-.981l.01-.01a.866.866 0 0 0 .877-.188c.403-.395.359-.895-.043-1.305a1.304 1.304 0 0 0-1.068-.401l-.024.355c.308-.023.562.047.791.28.239.244.292.556.035.808a.556.556 0 0 1-.785-.002l-.249-.254-.271.265.269.275c.288.295.302.613.068.842-.295.288-.68.214-.981-.095-.189-.193-.322-.56-.292-.888l-.349.03c-.067.311.032.778.386 1.141zm2.609 3.678-.157-.345 3.022-1.372.157.345-3.022 1.372z"/></symbol><symbol id="icon-progressive-circle" viewBox="0 0 32 32"><path stroke="#f7f7f7" style="stroke:var(--color2, #f7f7f7)" stroke-width=".571" d="M31.714 16c0 8.679-7.036 15.714-15.714 15.714S.286 24.678.286 16C.286 7.321 7.322.286 16 .286S31.714 7.322 31.714 16z"/></symbol><symbol id="icon-progressive-arrow" viewBox="0 0 40 32"><path fill="#f7f7f7" style="fill:var(--color2, #f7f7f7)" d="M20 32 37.32 2H2.68L20 32z"/></symbol></defs></svg>